<svg xmlns="http://www.w3.org/2000/svg" viewBox="0 0 600 300"><g><text x="50%" y="0" style="fill: rgb(54, 58, 61); dominant-baseline: text-before-edge; text-anchor: middle; font-weight: bold; font-family: sans-serif;">eval/loss</text><svg viewBox="0 0 1024 1024" x="151" y="26.10003662109375" height="11" width="11"><path d="M128 533.333h768c23.564 0 42.667-19.103 42.667-42.667v-85.333c0-23.564-19.103-42.667-42.667-42.667h-768c-23.564 0-42.667 19.103-42.667 42.667v85.333c0 23.564 19.103 42.667 42.667 42.667z" style="fill: rgb(197, 101, 199);"/></svg><text x="170" y="24.10003662109375" style="fill: rgb(197, 101, 199); dominant-baseline: text-before-edge; font-family: sans-serif;"> albert-base_long-run </text><svg viewBox="0 0 1024 1024" x="313.26666259765625" y="26.10003662109375" height="11" width="11"><path d="M128 533.333h768c23.564 0 42.667-19.103 42.667-42.667v-85.333c0-23.564-19.103-42.667-42.667-42.667h-768c-23.564 0-42.667 19.103-42.667 42.667v85.333c0 23.564 19.103 42.667 42.667 42.667z" style="fill: rgb(229, 116, 57);"/></svg><text x="332.26666259765625" y="24.10003662109375" style="fill: rgb(229, 116, 57); dominant-baseline: text-before-edge; font-family: sans-serif;"> glom-base_long-run </text></g><g transform="translate(0, 36.70001220703125)"><svg class="rv-xy-plot__inner" width="600" height="263"><g transform="translate(34,5)" class="rv-xy-plot__grid-lines"><line y1="221.266901049006" y2="221.266901049006" x1="0" x2="546" class="rv-xy-plot__grid-lines__line" style="stroke-width: 0.5px;"/><line y1="182.45430778202183" y2="182.45430778202183" x1="0" x2="546" class="rv-xy-plot__grid-lines__line" style="stroke-width: 0.5px;"/><line y1="143.64171451503768" y2="143.64171451503768" x1="0" x2="546" class="rv-xy-plot__grid-lines__line" style="stroke-width: 0.5px;"/><line y1="104.82912124805348" y2="104.82912124805348" x1="0" x2="546" class="rv-xy-plot__grid-lines__line" style="stroke-width: 0.5px;"/><line y1="66.01652798106932" y2="66.01652798106932" x1="0" x2="546" class="rv-xy-plot__grid-lines__line" style="stroke-width: 0.5px;"/><line y1="27.203934714085143" y2="27.203934714085143" x1="0" x2="546" class="rv-xy-plot__grid-lines__line" style="stroke-width: 0.5px;"/></g><path d="M0,0L1.7009345794392523,52.02094765100323L3.4018691588785046,95.71235780234737L5.102803738317757,133.3104288885108L6.803738317757009,164.63204981512195L8.504672897196262,186.2045133103107L10.205607476635514,201.72683374742036L11.906542056074766,206.68797104291482L13.607476635514018,209.90272375309593L15.30841121495327,206.91616588762895L17.009345794392523,209.32829458924863L18.710280373831775,209.54168360462202L20.411214953271028,208.8823430095056L22.11214953271028,209.50352157949627L23.813084112149532,209.9640569011399L25.514018691588785,209.63436809629502L27.214953271028037,210.74480529685036L28.91588785046729,210.40464136774693L30.61682242990654,211.7413486552021L32.3177570093458,212.41627238569964L34.018691588785046,209.7753566061922L35.719626168224295,210.46778822988517L37.42056074766355,209.6959603463525L39.1214953271028,211.9722455637709L40.822429906542055,209.580289804628L42.523364485981304,209.9796770510944L44.22429906542056,210.51305705309449L45.92523364485981,211.68319876046635L47.626168224299064,209.4331568755544L49.32710280373831,210.5483319414988L51.02803738317757,210.54178036201552L52.72897196261682,210.36159341893875L54.429906542056074,211.07978718568458L56.13084112149532,211.40225814872585L57.83177570093458,210.32047022794484L59.532710280373834,212.55800118706387L61.23364485981308,210.30518320915053L62.93457943925234,211.23524839376233L64.6355140186916,210.450095263823L66.33644859813084,212.3419841369825L68.03738317757009,211.69367388472494L69.73831775700934,211.81819090948053L71.43925233644859,212.2095459935296L73.14018691588784,212.26947258778623L74.8411214953271,211.8595732024879L76.54205607476635,213.44494439372076L78.2429906542056,211.6909348062969L79.94392523364485,209.5422388232223L81.64485981308411,211.87230621572093L83.34579439252336,213.35163065430075L85.04672897196261,212.7350048768324L86.74766355140186,211.9747995693322L88.44859813084112,213.61857975731428L90.14953271028037,210.0695114206193L91.85046728971962,212.14710240828504L93.55140186915888,211.53932311384773L95.25233644859813,211.32952451208948L96.95327102803738,213.861987591676L98.65420560747663,213.06236176355608L100.35514018691589,214.4769106987702L102.05607476635514,213.83352338476843L103.75700934579439,211.0620942196224L105.45794392523364,212.38714191647173L107.1588785046729,211.7873207553051L108.85981308411215,212.83616570580296L110.5607476635514,213.53725873966027L112.26168224299064,213.18895160441943L113.96261682242991,212.82620878557134L115.66355140186916,211.88237417967264L117.3644859813084,213.4609346894088L119.06542056074767,213.46293347636976L120.76635514018692,213.32727506503525L122.46728971962617,216.1053298388113L124.16822429906541,212.86933076352622L125.86915887850468,213.05732778158026L127.57009345794393,212.82372880915676L129.2710280373832,214.4145781572457L130.97196261682242,214.03136627933404L132.6728971962617,213.5629838681398L134.37383177570092,215.20284051134658L136.07476635514018,215.74921262859317L137.77570093457942,215.35678412191692L139.47663551401868,215.32569188030135L141.17757009345792,215.00133317401912L142.87850467289718,214.54890404393953L144.57943925233644,215.0399763885985L146.28037383177568,215.19066271671383L147.98130841121494,216.09511381656617L149.6822429906542,213.02083141225532L151.38317757009344,215.92784495958918L153.0841121495327,215.79881215688465L154.78504672897196,215.02739143365883L156.4859813084112,215.53449108857913L158.18691588785046,216.09218966527138L159.8878504672897,216.88785493404262L161.58878504672896,216.95440713692926L163.28971962616822,215.83941714385162L164.99065420560746,217.15247211893498L166.69158878504672,216.92686829435547L168.39252336448598,215.0742518835223L170.09345794392522,216.9624392993466L171.79439252336448,214.7584805582577L173.4953271028037,218.15701062513068L175.19626168224298,216.91742957815075L176.89719626168224,216.66291737178346L178.59813084112147,218.56842760793643L180.29906542056074,218.72503626778808L182,217.20903038701658L183.70093457943923,217.88491649642125L185.4018691588785,217.6901828260172L187.10280373831776,218.39405195287588L188.803738317757,217.94369563890402L190.50467289719626,217.5593733237918L192.2056074766355,219.95384607392265L193.90654205607476,216.87008793883376L195.60747663551402,217.39947036691183L197.30841121495325,217.8221767945899L199.00934579439252,216.48813455641604L200.71028037383178,219.11180154474152L202.411214953271,218.04122903968613L204.11214953271028,219.26752185483272L205.81308411214954,218.83052780184087L207.51401869158877,219.0141941148127L209.21495327102804,219.85146376403145L210.91588785046727,219.95825080815152L212.61682242990653,217.36249280813334L214.3177570093458,219.9089103818735L216.01869158878503,219.3111250222412L217.7196261682243,220.37544206440018L219.42056074766356,219.516037700317L221.1214953271028,220.8394567559389L222.82242990654206,218.51905016708508L224.5233644859813,220.19566228163026L226.22429906542055,220.73278075553887L227.92523364485982,220.58227950029027L229.62616822429905,221.86324284027756L231.3271028037383,220.3928759284489L233.02803738317758,220.69176860826502L234.7289719626168,220.22819809160654L236.42990654205607,220.5206132210861L238.13084112149534,220.70546400040521L239.83177570093457,219.60465058892134L241.53271028037383,220.98447985433143L243.23364485981307,221.15711582444442L244.93457943925233,221.53307284597912L246.6355140186916,221.6089527213504L248.33644859813083,222.50241049291722L250.0373831775701,222.2943515761065L251.73831775700936,220.41441841013966L253.4392523364486,220.41571392020697L255.14018691588785,222.01659421767428L256.8411214953271,219.74116033544294L258.5420560747664,223.7255200547556L260.2429906542056,223.13532268266042L261.94392523364485,222.45884434008212L263.6448598130841,220.40712653918936L265.3457943925234,222.46506278840522L267.04672897196264,221.0262322930723L268.74766355140184,219.97583273049366L270.4485981308411,221.80028105100607L272.14953271028037,222.57840141200856L273.8504672897196,223.7227439617542L275.55140186915884,223.50706004283302L277.2523364485981,221.86842488054683L278.95327102803736,219.58847522036658L280.6542056074766,221.9035887252311L282.35514018691583,223.7722324463256L284.0560747663551,220.33505916487331L285.75700934579436,220.3946156133964L287.4579439252336,220.91896405949865L289.1588785046729,223.79166509733534L290.85981308411215,220.2640281986111L292.56074766355135,220.59715935877773L294.2616822429906,222.6299627126877L295.9626168224299,221.81919549798886L297.66355140186914,220.9487237764735L299.3644859813084,222.53761135217485L301.0654205607476,224.16492005501533L302.7663551401869,221.27737617326457L304.46728971962614,222.30079211186973L306.1682242990654,222.47194749904867L307.86915887850466,221.8045747415149L309.5700934579439,219.76666337648237L311.27102803738313,221.06354298301096L312.9719626168224,223.14905508937395L314.67289719626166,223.5013597985368L316.3738317757009,223.636351947551L318.0747663551402,224.37323807383953L319.7757009345794,222.901834753957L321.47663551401865,223.593007882156L323.1775700934579,223.5531061720827L324.8785046728972,222.77202464521207L326.57943925233644,223.9047446189252L328.2803738317757,221.98102321268314L329.9813084112149,224.40499657777542L331.6822429906542,220.94058057033612L333.38317757009344,222.68826066571685L335.0841121495327,222.6391793414523L336.78504672897196,223.0986782550421L338.48598130841117,223.9666329855695L340.18691588785043,224.85986866969625L341.8878504672897,222.95498768129022L343.58878504672896,225.42167586403053L345.2897196261682,219.8777811256846L346.9906542056074,222.96028076527955L348.6915887850467,224.8752667322106L350.39252336448595,224.37534790452057L352.0934579439252,222.88825040553687L353.7943925233645,222.44433462732817L355.49532710280374,224.80501307198878L357.19626168224295,224.59458522248354L358.8971962616822,222.81692332268784L360.5981308411215,225.91282223783617L362.29906542056074,222.3543151849365L364,224.58951422593438L365.7009345794392,223.49036647025133L367.40186915887847,224.0764922392778L369.10280373831773,223.6764017159177L370.803738317757,226.039152976686L372.50467289719626,226.18565665801262L374.2056074766355,224.58888497818737L375.9065420560747,222.3143394457165L377.607476635514,224.55286979831604L379.30841121495325,225.6604568767233L381.0093457943925,226.23836541046563L382.7102803738318,224.18764700305337L384.411214953271,224.0507300962249L386.11214953271025,224.6729820888428L387.8130841121495,224.57100693925844L389.5140186915888,224.90151006471706L391.21495327102804,224.2504237194581L392.9158878504673,222.54220115927046L394.6168224299065,225.76465290070874L396.31775700934577,222.7878298680333L398.01869158878503,224.5149298606304L399.7196261682243,223.8642506756783L401.42056074766356,225.96157043094055L403.12149532710276,223.26283788785753L404.822429906542,224.4468970748097L406.5233644859813,224.6626550228776L408.22429906542055,226.00917117227104L409.9252336448598,226.91125333942884L411.6261682242991,225.07325768506962L413.3271028037383,225.12182080530724L415.02803738317755,225.2927170904727L416.7289719626168,222.79978557522594L418.4299065420561,225.54804361745374L420.13084112149534,223.7431019770977L421.83177570093454,222.25881758568872L423.5327102803738,224.25493949740704L425.23364485981307,225.02587903117924L426.93457943925233,225.924481828442L428.6355140186916,223.6713307193685L430.3364485981308,223.92291877444097L432.03738317757006,226.12606319491613L433.7383177570093,226.01079981349852L435.4392523364486,224.44408396723495L437.14018691588785,224.91875885589903L438.8411214953271,224.00479501069526L440.5420560747663,224.78606161043265L442.2429906542056,225.50592103297933L443.94392523364485,224.68682553927636L445.6448598130841,224.20826412041035L447.3457943925234,224.23247165138247L449.0467289719626,224.58777454098683L450.74766355140184,225.83908920771927L452.4485981308411,225.58002420882974L454.14953271028037,225.2653633207657L455.85046728971963,224.43571867365745L457.5514018691589,225.30974379421457L459.2523364485981,226.98517144241245L460.95327102803736,226.7485002604008L462.6542056074766,225.8412360529737L464.3551401869159,226.43228476025595L466.05607476635515,225.16894035718414L467.75700934579436,224.7744390344002L469.4579439252336,227.14144697110396L471.1588785046729,226.84266533500787L472.85981308411215,225.61977786060962L474.5607476635514,225.46017102031647L476.2616822429907,224.9255325228224L477.9626168224299,223.19587852466404L479.66355140186914,224.09189030179215L481.3644859813084,225.0506047661783L483.06542056074767,223.14668615667944L484.76635514018693,225.6204071083566L486.46728971962614,227.48997619378494L488.1682242990654,223.88579315736908L489.86915887850466,225.46246592386427L491.5700934579439,223.70042417402306L493.2710280373832,226.44705357502335L494.97196261682245,228L496.67289719626166,225.5745090374003L498.3738317757009,224.07571493323738L500.0747663551402,226.23155472896892L501.77570093457945,227.56474563195565L503.4766355140187,224.22262577487086L505.1775700934579,225.51680331754477L506.8785046728972,225.82121116879034L508.57943925233644,225.96793693755706L510.2803738317757,226.9384960654158L511.98130841121497,226.7869954166867L513.6822429906542,224.71451244014355L515.3831775700935,223.74036289866967L517.0841121495328,224.29902385426908L518.7850467289719,224.72587591416257L520.4859813084112,226.00025066009323L522.1869158878504,223.78437322638501L523.8878504672897,224.0883739173237L525.588785046729,224.30498320057873L527.2897196261682,226.69634672654803L528.9906542056075,224.62456702689855L530.6915887850467,227.0751538702308L532.392523364486,225.50577297468593L534.0934579439253,227.21477284091395L535.7943925233645,226.06195395387076L537.4953271028037,225.04860597921729L539.196261682243,224.19819615645866L540.8971962616822,225.83005765182145L542.5981308411215,225.93014505816484L544.2990654205607,223.47393199968312L546,226.80028364852" class="rv-xy-plot__series rv-xy-plot__series--line" transform="translate(34,5)" style="opacity: 1; stroke-width: 1.5px; stroke: rgb(229, 116, 57);"/><path d="M0,2.773650039547143L1.7009345794392523,52.838081372318555L3.4018691588785046,94.01005757389603L5.102803738317757,130.8288238327097L6.803738317757009,161.560173358079L8.504672897196262,183.7872395829951L10.205607476635514,200.75908772713638L11.906542056074766,206.02215289746184L13.607476635514018,209.44948030240258L15.30841121495327,206.66964882910565L17.009345794392523,209.09084610119655L18.710280373831775,209.3697509114027L20.411214953271028,208.7650438265536L22.11214953271028,209.44063381937147L23.813084112149532,209.87462969192185L25.514018691588785,209.57577402667908L27.214953271028037,210.67310806826788L28.91588785046729,210.24921717424252L30.61682242990654,211.61420359573853L32.3177570093458,212.27384030744176L34.018691588785046,209.69155561212364L35.719626168224295,210.35789196160354L37.42056074766355,209.67056834903315L39.1214953271028,211.8395113037312L40.822429906542055,209.37663562204614L42.523364485981304,209.75233354156737L44.22429906542056,210.26202421662228L45.92523364485981,211.36520656080066L47.626168224299064,209.31408099308155L49.32710280373831,210.2675393880517L51.02803738317757,210.2297104940861L52.72897196261682,210.04434151074005L54.429906542056074,210.608739725209L56.13084112149532,210.9577871519169L57.83177570093458,209.8071151101281L59.532710280373834,212.00015455207821L61.23364485981308,209.6017952717454L62.93457943925234,210.65267602377764L64.6355140186916,209.8645247133968L66.33644859813084,211.8482837576156L68.03738317757009,211.10640066392457L69.73831775700934,211.26534124189737L71.43925233644859,211.51311679591464L73.14018691588784,211.49301788258458L74.8411214953271,211.09859058894733L76.54205607476635,212.56784706357547L78.2429906542056,210.75143090548036L79.94392523364485,208.76300802501927L81.64485981308411,211.16099715961852L83.34579439252336,212.32717830764176L85.04672897196261,211.6732418402347L86.74766355140186,210.83760083224345L88.44859813084112,212.49104182387038L90.14953271028037,208.87294130787424L91.85046728971962,210.86591698085763L93.55140186915888,210.23755758363671L95.25233644859813,209.9438469440898L96.95327102803738,212.40842529614906L98.65420560747663,211.70351976123652L100.35514018691589,212.90038599056842L102.05607476635514,212.29442041022537L103.75700934579439,209.29646205616604L105.45794392523364,210.6335765039281L107.1588785046729,209.82051438568146L108.85981308411215,211.1046979935504L110.5607476635514,211.73039234148996L112.26168224299064,211.21485336384546L113.96261682242991,210.60799943374195L115.66355140186916,209.70510294597042L117.3644859813084,211.22906696001257L119.06542056074767,211.1747665809054L120.76635514018692,210.92247524893924L122.46728971962617,213.4046355233406L124.16822429906541,210.11944408007096L125.86915887850468,210.4005697646782L127.57009345794393,210.13528631746556L129.2710280373832,211.4508952981102L130.97196261682242,210.91573859658922L132.6728971962617,210.56939323373598L134.37383177570092,211.82626008647122L136.07476635514018,212.54804426683222L137.77570093457942,211.7692576435094L139.47663551401868,211.81719151600004L141.17757009345792,211.64355615240652L142.87850467289718,210.98118036227527L144.57943925233644,211.42890864153918L146.28037383177568,211.12990491800298L147.98130841121494,211.84769152444196L149.6822429906542,208.84632782963425L151.38317757009344,211.78598823066443L153.0841121495327,211.58251912094934L154.78504672897196,211.18302083076287L156.4859813084112,211.65677035509316L158.18691588785046,211.7032236446497L159.8878504672897,212.35064554714683L161.58878504672896,211.99190030222073L163.28971962616822,211.1325699672843L164.99065420560746,212.16283360195956L166.69158878504672,211.86297854323627L168.39252336448598,210.09023958169635L170.09345794392522,211.50119810329534L171.79439252336448,209.24064407955146L173.4953271028037,212.6361389514096L175.19626168224298,211.67661016640972L176.89719626168224,210.8859788796143L178.59813084112147,212.62018567029494L180.29906542056074,212.7936359610217L182,211.30757487009183L183.70093457943923,211.8568711386332L185.4018691588785,211.60957677406952L187.10280373831776,211.92671763854815L188.803738317757,211.63763382067023L190.50467289719626,210.91581262573592L192.2056074766355,213.64134371992566L193.90654205607476,210.34375239458313L195.60747663551402,210.78633564815115L197.30841121495325,210.70109108572186L199.00934579439252,209.64828557587535L200.71028037383178,212.05030929896995L202.411214953271,210.97133448576366L204.11214953271028,211.94137540959545L205.81308411214954,211.68512351828068L207.51401869158877,211.3417393212956L209.21495327102804,212.15147012794054L210.91588785046727,212.21520922325243L212.61682242990653,209.49038140595636L214.3177570093458,212.10083419159523L216.01869158878503,211.27703784707654L217.7196261682243,212.0534185231315L219.42056074766356,211.231954096734L221.1214953271028,212.5366807928132L222.82242990654206,210.31340044443465L224.5233644859813,211.74564234571093L226.22429906542055,212.35667892260318L227.92523364485982,212.19118676514708L229.62616822429905,213.29125988516392L231.3271028037383,211.55919993973768L233.02803738317758,212.06848345448572L234.7289719626168,211.08345162844643L236.42990654205607,211.52299968699955L238.13084112149534,211.8387339976908L239.83177570093457,210.66777796970518L241.53271028037383,211.53125393685704L243.23364485981307,212.121007134072L244.93457943925233,212.2455241588276L246.6355140186916,212.25570316649936L248.33644859813083,213.1757374017328L250.0373831775701,212.5545218171688L251.73831775700936,210.65537808763233L253.4392523364486,210.67743877335002L255.14018691588785,212.36482212874057L256.8411214953271,210.14498413568373L258.5420560747664,214.0593122822147L260.2429906542056,213.2067185996283L261.94392523364485,212.44469957803386L263.6448598130841,210.19306606646776L265.3457943925234,212.42593318934448L267.04672897196264,210.75120881804025L268.74766355140184,209.91508662059542L270.4485981308411,211.43964286781122L272.14953271028037,212.1682747442423L273.8504672897196,213.4514589586307L275.55140186915884,213.27937820711796L277.2523364485981,211.43786616829033L278.95327102803736,208.56383260581296L280.6542056074766,211.25982607046797L282.35514018691583,213.39408636993534L284.0560747663551,209.80744824128828L285.75700934579436,209.64628678891432L287.4579439252336,210.4133397924846L289.1588785046729,212.73992781508818L290.85981308411215,209.82621462997764L292.56074766355135,209.68245002707908L294.2616822429906,211.70933104925277L295.9626168224299,210.66355830834308L297.66355140186914,210.10071470595494L299.3644859813084,211.35928422906437L301.0654205607476,212.85463597790556L302.7663551401869,210.1012699245552L304.46728971962614,211.355249640569L306.1682242990654,211.22255239510264L307.86915887850466,210.68502676088715L309.5700934579439,208.57230894311056L311.27102803738313,209.40217567765893L312.9719626168224,211.7784002431273L314.67289719626166,211.85631592003293L316.3738317757009,212.24012003111824L318.0747663551402,212.9190043209644L319.7757009345794,211.20300870037286L321.47663551401865,212.27121227273378L323.1775700934579,212.03642883396301L324.8785046728972,211.2966925855264L326.57943925233644,212.2342347139553L328.2803738317757,210.25251147127085L329.9813084112149,212.68299940127304L331.6822429906542,208.77840608753363L333.38317757009344,210.77785931085356L335.0841121495327,210.35896538423074L336.78504672897196,211.15722167313663L338.48598130841117,212.15446830838204L340.18691588785043,212.44584702980777L341.8878504672897,210.85751467270677L343.58878504672896,212.9772652594202L345.2897196261682,207.61933173759397L346.9906542056074,210.6490856101625L348.6915887850467,212.2786522019775L350.39252336448595,211.6893061650694L352.0934579439252,210.39768262795678L353.7943925233645,210.45224210907742L355.49532710280374,212.56999390882987L357.19626168224295,212.3864016250047L358.8971962616822,210.22996959609958L360.5981308411215,213.48277328768634L362.29906542056074,209.55763688573668L364,212.04890274518257L365.7009345794392,210.8541093319584L367.40186915887847,211.6368935292032L369.10280373831773,210.88442426753355L370.803738317757,213.57212646775773L372.50467289719626,213.59085584187375L374.2056074766355,211.87830257660391L375.9065420560747,209.83465395270187L377.607476635514,211.38282549771614L379.30841121495325,213.08705048398178L381.0093457943925,213.53426055921878L382.7102803738318,211.33078300758345L384.411214953271,211.2784814154373L386.11214953271025,211.69670907973978L387.8130841121495,211.91435477104864L389.5140186915888,211.84410111082684L391.21495327102804,211.51407917482177L392.9158878504673,209.51166478563368L394.6168224299065,212.8583374352407L396.31775700934577,209.8133335584512L398.01869158878503,211.47758280549687L399.7196261682243,211.0550984652589L401.42056074766356,212.99640179384312L403.12149532710276,210.4064550818412L404.822429906542,211.42631762140456L406.5233644859813,211.6637290948833L408.22429906542055,212.94347095394997L409.9252336448598,213.7344723864789L411.6261682242991,211.8662728402646L413.3271028037383,211.86368182012995L415.02803738317755,211.91024615340658L416.7289719626168,209.62293059312933L418.4299065420561,212.31185427427408L420.13084112149534,210.39516563696887L421.83177570093454,208.83959117728423L423.5327102803738,211.23824657420383L425.23364485981307,212.1590211009043L426.93457943925233,212.73741082410027L428.6355140186916,210.3287244778023L430.3364485981308,210.7465449817979L432.03738317757006,213.18906264813947L433.7383177570093,212.60760071535532L435.4392523364486,211.00087211529845L437.14018691588785,211.4984590248673L438.8411214953271,210.40464136774693L440.5420560747663,211.28122049386533L442.2429906542056,212.02902591929265L443.94392523364485,211.08189701636564L445.6448598130841,210.74680408381138L447.3457943925234,210.45061346784993L449.0467289719626,211.02019372258812L450.74766355140184,212.455655891746L452.4485981308411,211.8649033010506L454.14953271028037,211.63563503370924L455.85046728971963,210.73866087767396L457.5514018691589,212.04316548631303L459.2523364485981,213.47592559161626L460.95327102803736,213.25535574901264L462.6542056074766,212.06892762936593L464.3551401869159,212.61318991593146L466.05607476635515,211.60817022028218L467.75700934579436,210.8544054485452L469.4579439252336,213.06576710430446L471.1588785046729,213.13405899213862L472.85981308411215,211.82400219749675L474.5607476635514,211.6323037221076L476.2616822429907,211.24694499894153L477.9626168224299,209.18175389334866L479.66355140186914,210.25484338939202L481.3644859813084,211.30620533087782L483.06542056074767,209.1958194312224L484.76635514018693,212.06008114633485L486.46728971962614,213.60573570036118L488.1682242990654,209.88769583631506L489.86915887850466,211.61353733341818L491.5700934579439,209.63418302342828L493.2710280373832,212.63395509158184L494.97196261682245,213.9819888384827L496.67289719626166,211.90832139559228L498.3738317757009,210.40308675566615L500.0747663551402,212.34461217169047L501.77570093457945,213.5609110520321L503.4766355140187,210.22027177788138L505.1775700934579,211.7063698833846L506.8785046728972,212.08528807078744L508.57943925233644,212.25662853083313L510.2803738317757,213.22774287729214L511.98130841121497,212.8113289270839L513.6822429906542,210.6490856101625L515.3831775700935,210.13524930289222L517.0841121495328,210.33708977137982L518.7850467289719,210.87383809955492L520.4859813084112,212.31866495577083L522.1869158878504,210.12203510020558L523.8878504672897,210.05851809233383L525.588785046729,210.0549276787187L527.2897196261682,212.41149750573726L528.9906542056075,210.88805169572203L530.6915887850467,213.09334296145158L532.392523364486,211.55290746226785L534.0934579439253,213.17736604296027L535.7943925233645,211.87848764947069L537.4953271028037,211.24198504611238L539.196261682243,209.9855993828307L540.8971962616822,211.65295785403788L542.5981308411215,211.74390266076338L544.2990654205607,209.62648399217107L546,212.65627487931303" class="rv-xy-plot__series rv-xy-plot__series--line" transform="translate(34,5)" style="opacity: 1; stroke-width: 1.5px; stroke: rgb(197, 101, 199);"/><g class="rv-xy-plot__series rv-xy-plot__series--mark" transform="translate(34,5)"><circle r="2" cx="546" cy="212.65627487931303" style="opacity: 1; stroke: rgb(197, 101, 199); fill: rgb(197, 101, 199); stroke-width: 1px;"/></g><g class="rv-xy-plot__series rv-xy-plot__series--mark" transform="translate(34,5)"><circle r="2" cx="546" cy="226.80028364852" style="opacity: 1; stroke: rgb(229, 116, 57); fill: rgb(229, 116, 57); stroke-width: 1px;"/></g><defs class="rv-gradient-defs"><linearGradient id="leftFadeGradient" x1="0" x2="1" y1="0" y2="0"><stop offset="0%" stop-color="white" stop-opacity="1"/><stop offset="60%" stop-color="white" stop-opacity="1"/><stop offset="100%" stop-color="white" stop-opacity="0"/></linearGradient><linearGradient id="rightFadeGradient" x1="1" x2="0" y1="0" y2="0"><stop offset="0%" stop-color="white" stop-opacity="1"/><stop offset="100%" stop-color="white" stop-opacity="0"/></linearGradient><linearGradient id="bottomFadeGradient" x1="0" x2="0" y1="1" y2="0"><stop offset="0%" stop-color="white" stop-opacity="1"/><stop offset="40%" stop-color="white" stop-opacity="1"/><stop offset="100%" stop-color="white" stop-opacity="0"/></linearGradient><linearGradient id="topFadeGradient" x1="0" x2="0" y1="0" y2="1"><stop offset="0%" stop-color="white" stop-opacity="1"/><stop offset="100%" stop-color="white" stop-opacity="0"/></linearGradient></defs><g class="rv-xy-plot__borders plot-border"><rect class="rv-xy-plot__borders-bottom plot-border-bottom" style="fill: url(&quot;#bottomFadeGradient&quot;); opacity: 1;" x="0" y="233" width="600" height="30"/><rect class="rv-xy-plot__borders-left plot-border-left" style="fill: url(&quot;#leftFadeGradient&quot;); opacity: 1;" x="0" y="0" width="34" height="263"/><rect class="rv-xy-plot__borders-right plot-border-right" style="fill: url(&quot;#rightFadeGradient&quot;); opacity: 1;" x="580" y="0" width="20" height="263"/><rect class="rv-xy-plot__borders-top plot-border-top" style="fill: url(&quot;#topFadeGradient&quot;); opacity: 1;" x="0" y="0" width="600" height="5"/></g><g transform="translate(34,730.8306135198002)" class="rv-xy-plot__axis rv-xy-plot__axis--horizontal"><line x1="0" x2="546" y1="0" y2="0" class="rv-xy-plot__axis__line"/><g transform="translate(0, 0)" class="rv-xy-plot__axis__ticks"/></g><g transform="translate(34,233)" class="rv-xy-plot__axis rv-xy-plot__axis--horizontal" style="font-family: Source Sans Pro; fill: rgb(107, 107, 118); font-size: 11px;"><line x1="0" x2="546" y1="0" y2="0" class="rv-xy-plot__axis__line" style="font-family: Source Sans Pro; fill: rgb(107, 107, 118); font-size: 11px; stroke-width: 0px;"/><g transform="translate(0, 0)" class="rv-xy-plot__axis__ticks"><g transform="translate(83.34579439252336, 0)" class="rv-xy-plot__axis__tick" style="font-family: Source Sans Pro; fill: rgb(107, 107, 118); font-size: 11px;"><line x1="0" x2="0" y1="-6" y2="6" class="rv-xy-plot__axis__tick__line" style="font-family: Source Sans Pro; fill: rgb(107, 107, 118); font-size: 11px; stroke-width: 0px;"/><text text-anchor="middle" dy="0.72em" transform="translate(0, 14)" class="rv-xy-plot__axis__tick__text" style="font-family: sans-serif; fill: rgb(107, 107, 118); font-size: 11px;">5k</text></g><g transform="translate(168.39252336448598, 0)" class="rv-xy-plot__axis__tick" style="font-family: Source Sans Pro; fill: rgb(107, 107, 118); font-size: 11px;"><line x1="0" x2="0" y1="-6" y2="6" class="rv-xy-plot__axis__tick__line" style="font-family: Source Sans Pro; fill: rgb(107, 107, 118); font-size: 11px; stroke-width: 0px;"/><text text-anchor="middle" dy="0.72em" transform="translate(0, 14)" class="rv-xy-plot__axis__tick__text" style="font-family: sans-serif; fill: rgb(107, 107, 118); font-size: 11px;">10k</text></g><g transform="translate(253.4392523364486, 0)" class="rv-xy-plot__axis__tick" style="font-family: Source Sans Pro; fill: rgb(107, 107, 118); font-size: 11px;"><line x1="0" x2="0" y1="-6" y2="6" class="rv-xy-plot__axis__tick__line" style="font-family: Source Sans Pro; fill: rgb(107, 107, 118); font-size: 11px; stroke-width: 0px;"/><text text-anchor="middle" dy="0.72em" transform="translate(0, 14)" class="rv-xy-plot__axis__tick__text" style="font-family: sans-serif; fill: rgb(107, 107, 118); font-size: 11px;">15k</text></g><g transform="translate(338.48598130841117, 0)" class="rv-xy-plot__axis__tick" style="font-family: Source Sans Pro; fill: rgb(107, 107, 118); font-size: 11px;"><line x1="0" x2="0" y1="-6" y2="6" class="rv-xy-plot__axis__tick__line" style="font-family: Source Sans Pro; fill: rgb(107, 107, 118); font-size: 11px; stroke-width: 0px;"/><text text-anchor="middle" dy="0.72em" transform="translate(0, 14)" class="rv-xy-plot__axis__tick__text" style="font-family: sans-serif; fill: rgb(107, 107, 118); font-size: 11px;">20k</text></g><g transform="translate(423.5327102803738, 0)" class="rv-xy-plot__axis__tick" style="font-family: Source Sans Pro; fill: rgb(107, 107, 118); font-size: 11px;"><line x1="0" x2="0" y1="-6" y2="6" class="rv-xy-plot__axis__tick__line" style="font-family: Source Sans Pro; fill: rgb(107, 107, 118); font-size: 11px; stroke-width: 0px;"/><text text-anchor="middle" dy="0.72em" transform="translate(0, 14)" class="rv-xy-plot__axis__tick__text" style="font-family: sans-serif; fill: rgb(107, 107, 118); font-size: 11px;">25k</text></g><g transform="translate(508.57943925233644, 0)" class="rv-xy-plot__axis__tick" style="font-family: Source Sans Pro; fill: rgb(107, 107, 118); font-size: 11px;"><line x1="0" x2="0" y1="-6" y2="6" class="rv-xy-plot__axis__tick__line" style="font-family: Source Sans Pro; fill: rgb(107, 107, 118); font-size: 11px; stroke-width: 0px;"/><text text-anchor="middle" dy="0.72em" transform="translate(0, 14)" class="rv-xy-plot__axis__tick__text" style="font-family: sans-serif; fill: rgb(107, 107, 118); font-size: 11px;">30k</text></g></g><g transform="translate(0, 0)" class="rv-xy-plot__axis__title"><g style="text-anchor: end; font-family: Source Sans Pro; fill: rgb(107, 107, 118); font-size: 11px;" transform="translate(540, -6) rotate(0)"><text style="font-family: sans-serif; fill: rgb(107, 107, 118); font-size: 11px;">Step</text></g></g></g><g transform="translate(34,233)" class="rv-xy-plot__axis rv-xy-plot__axis--horizontal"><line x1="0" x2="0" y1="0" y2="0" class="rv-xy-plot__axis__line"/><g transform="translate(0, 0)" class="rv-xy-plot__axis__ticks"><g transform="translate(83.34579439252336, 0)" class="rv-xy-plot__axis__tick"><line x1="0" x2="0" y1="-6" y2="6" class="rv-xy-plot__axis__tick__line"/><text text-anchor="middle" dy="0.72em" transform="translate(0, 14)" class="rv-xy-plot__axis__tick__text" style="font-family: sans-serif;"/></g><g transform="translate(168.39252336448598, 0)" class="rv-xy-plot__axis__tick"><line x1="0" x2="0" y1="-6" y2="6" class="rv-xy-plot__axis__tick__line"/><text text-anchor="middle" dy="0.72em" transform="translate(0, 14)" class="rv-xy-plot__axis__tick__text" style="font-family: sans-serif;"/></g><g transform="translate(253.4392523364486, 0)" class="rv-xy-plot__axis__tick"><line x1="0" x2="0" y1="-6" y2="6" class="rv-xy-plot__axis__tick__line"/><text text-anchor="middle" dy="0.72em" transform="translate(0, 14)" class="rv-xy-plot__axis__tick__text" style="font-family: sans-serif;"/></g><g transform="translate(338.48598130841117, 0)" class="rv-xy-plot__axis__tick"><line x1="0" x2="0" y1="-6" y2="6" class="rv-xy-plot__axis__tick__line"/><text text-anchor="middle" dy="0.72em" transform="translate(0, 14)" class="rv-xy-plot__axis__tick__text" style="font-family: sans-serif;"/></g><g transform="translate(423.5327102803738, 0)" class="rv-xy-plot__axis__tick"><line x1="0" x2="0" y1="-6" y2="6" class="rv-xy-plot__axis__tick__line"/><text text-anchor="middle" dy="0.72em" transform="translate(0, 14)" class="rv-xy-plot__axis__tick__text" style="font-family: sans-serif;"/></g><g transform="translate(508.57943925233644, 0)" class="rv-xy-plot__axis__tick"><line x1="0" x2="0" y1="-6" y2="6" class="rv-xy-plot__axis__tick__line"/><text text-anchor="middle" dy="0.72em" transform="translate(0, 14)" class="rv-xy-plot__axis__tick__text" style="font-family: sans-serif;"/></g></g></g><g transform="translate(0,5)" class="rv-xy-plot__axis rv-xy-plot__axis--vertical" style="font-family: Source Sans Pro; fill: rgb(107, 107, 118); font-size: 11px;"><line x1="34" x2="34" y1="0" y2="228" class="rv-xy-plot__axis__line" style="font-family: Source Sans Pro; fill: rgb(107, 107, 118); font-size: 11px; stroke: none;"/><g transform="translate(34, 0)" class="rv-xy-plot__axis__ticks"><g transform="translate(0, 221.266901049006)" class="rv-xy-plot__axis__tick" style="font-family: Source Sans Pro; fill: rgb(107, 107, 118); font-size: 11px;"><line y1="0" y2="0" x1="6" x2="-6" class="rv-xy-plot__axis__tick__line" style="font-family: Source Sans Pro; fill: rgb(107, 107, 118); font-size: 11px; stroke: none;"/><text text-anchor="end" dy="0.32em" transform="translate(-14, 0)" class="rv-xy-plot__axis__tick__text" style="font-family: sans-serif; fill: rgb(107, 107, 118); font-size: 11px;">6.5</text></g><g transform="translate(0, 182.45430778202183)" class="rv-xy-plot__axis__tick" style="font-family: Source Sans Pro; fill: rgb(107, 107, 118); font-size: 11px;"><line y1="0" y2="0" x1="6" x2="-6" class="rv-xy-plot__axis__tick__line" style="font-family: Source Sans Pro; fill: rgb(107, 107, 118); font-size: 11px; stroke: none;"/><text text-anchor="end" dy="0.32em" transform="translate(-14, 0)" class="rv-xy-plot__axis__tick__text" style="font-family: sans-serif; fill: rgb(107, 107, 118); font-size: 11px;">7</text></g><g transform="translate(0, 143.64171451503768)" class="rv-xy-plot__axis__tick" style="font-family: Source Sans Pro; fill: rgb(107, 107, 118); font-size: 11px;"><line y1="0" y2="0" x1="6" x2="-6" class="rv-xy-plot__axis__tick__line" style="font-family: Source Sans Pro; fill: rgb(107, 107, 118); font-size: 11px; stroke: none;"/><text text-anchor="end" dy="0.32em" transform="translate(-14, 0)" class="rv-xy-plot__axis__tick__text" style="font-family: sans-serif; fill: rgb(107, 107, 118); font-size: 11px;">7.5</text></g><g transform="translate(0, 104.82912124805348)" class="rv-xy-plot__axis__tick" style="font-family: Source Sans Pro; fill: rgb(107, 107, 118); font-size: 11px;"><line y1="0" y2="0" x1="6" x2="-6" class="rv-xy-plot__axis__tick__line" style="font-family: Source Sans Pro; fill: rgb(107, 107, 118); font-size: 11px; stroke: none;"/><text text-anchor="end" dy="0.32em" transform="translate(-14, 0)" class="rv-xy-plot__axis__tick__text" style="font-family: sans-serif; fill: rgb(107, 107, 118); font-size: 11px;">8</text></g><g transform="translate(0, 66.01652798106932)" class="rv-xy-plot__axis__tick" style="font-family: Source Sans Pro; fill: rgb(107, 107, 118); font-size: 11px;"><line y1="0" y2="0" x1="6" x2="-6" class="rv-xy-plot__axis__tick__line" style="font-family: Source Sans Pro; fill: rgb(107, 107, 118); font-size: 11px; stroke: none;"/><text text-anchor="end" dy="0.32em" transform="translate(-14, 0)" class="rv-xy-plot__axis__tick__text" style="font-family: sans-serif; fill: rgb(107, 107, 118); font-size: 11px;">8.5</text></g><g transform="translate(0, 27.203934714085143)" class="rv-xy-plot__axis__tick" style="font-family: Source Sans Pro; fill: rgb(107, 107, 118); font-size: 11px;"><line y1="0" y2="0" x1="6" x2="-6" class="rv-xy-plot__axis__tick__line" style="font-family: Source Sans Pro; fill: rgb(107, 107, 118); font-size: 11px; stroke: none;"/><text text-anchor="end" dy="0.32em" transform="translate(-14, 0)" class="rv-xy-plot__axis__tick__text" style="font-family: sans-serif; fill: rgb(107, 107, 118); font-size: 11px;">9</text></g></g></g></svg></g><style xmlns="http://www.w3.org/1999/xhtml">/*&lt;![CDATA[*/<br />text { font-size: 10px; fill: black }<br />.react-vis-magic-css-import-rule{display:inherit}.rv-treemap{font-size:12px;position:relative}.rv-treemap__leaf{overflow:hidden;position:absolute}.rv-treemap__leaf--circle{align-items:center;border-radius:100%;display:flex;justify-content:center}.rv-treemap__leaf__content{overflow:hidden;padding:10px;text-overflow:ellipsis}.rv-xy-plot{color:#c3c3c3;position:relative}.rv-xy-plot canvas{pointer-events:none}.rv-xy-plot .rv-xy-canvas{pointer-events:none;position:absolute}.rv-xy-plot__inner{display:block}.rv-xy-plot__axis__line{fill:none;stroke-width:2px;stroke:#e6e6e9}.rv-xy-plot__axis__tick__line{stroke:#e6e6e9}.rv-xy-plot__axis__tick__text{fill:#6b6b76;font-size:11px}.rv-xy-plot__axis__title text{fill:#6b6b76;font-size:11px}.rv-xy-plot__grid-lines__line{stroke:#e6e6e9}.rv-xy-plot__circular-grid-lines__line{fill-opacity:0;stroke:#e6e6e9}.rv-xy-plot__series,.rv-xy-plot__series path{pointer-events:all}.rv-xy-plot__series--line{fill:none;stroke:#000;stroke-width:2px}.rv-crosshair{position:absolute;font-size:11px;pointer-events:none}.rv-crosshair__line{background:#47d3d9;width:1px}.rv-crosshair__inner{position:absolute;text-align:left;top:0}.rv-crosshair__inner__content{border-radius:4px;background:#3a3a48;color:#fff;font-size:12px;padding:7px 10px;box-shadow:0 2px 4px rgba(0,0,0,0.5)}.rv-crosshair__inner--left{right:4px}.rv-crosshair__inner--right{left:4px}.rv-crosshair__title{font-weight:bold;white-space:nowrap}.rv-crosshair__item{white-space:nowrap}.rv-hint{position:absolute;pointer-events:none}.rv-hint__content{border-radius:4px;padding:7px 10px;font-size:12px;background:#3a3a48;box-shadow:0 2px 4px rgba(0,0,0,0.5);color:#fff;text-align:left;white-space:nowrap}.rv-discrete-color-legend{box-sizing:border-box;overflow-y:auto;font-size:12px}.rv-discrete-color-legend.horizontal{white-space:nowrap}.rv-discrete-color-legend-item{color:#3a3a48;border-radius:1px;padding:9px 10px}.rv-discrete-color-legend-item.horizontal{display:inline-block}.rv-discrete-color-legend-item.horizontal .rv-discrete-color-legend-item__title{margin-left:0;display:block}.rv-discrete-color-legend-item__color{display:inline-block;vertical-align:middle;overflow:visible}.rv-discrete-color-legend-item__color__path{stroke:#dcdcdc;stroke-width:2px}.rv-discrete-color-legend-item__title{margin-left:10px}.rv-discrete-color-legend-item.disabled{color:#b8b8b8}.rv-discrete-color-legend-item.clickable{cursor:pointer}.rv-discrete-color-legend-item.clickable:hover{background:#f9f9f9}.rv-search-wrapper{display:flex;flex-direction:column}.rv-search-wrapper__form{flex:0}.rv-search-wrapper__form__input{width:100%;color:#a6a6a5;border:1px solid #e5e5e4;padding:7px 10px;font-size:12px;box-sizing:border-box;border-radius:2px;margin:0 0 9px;outline:0}.rv-search-wrapper__contents{flex:1;overflow:auto}.rv-continuous-color-legend{font-size:12px}.rv-continuous-color-legend .rv-gradient{height:4px;border-radius:2px;margin-bottom:5px}.rv-continuous-size-legend{font-size:12px}.rv-continuous-size-legend .rv-bubbles{text-align:justify;overflow:hidden;margin-bottom:5px;width:100%}.rv-continuous-size-legend .rv-bubble{background:#d8d9dc;display:inline-block;vertical-align:bottom}.rv-continuous-size-legend .rv-spacer{display:inline-block;font-size:0;line-height:0;width:100%}.rv-legend-titles{height:16px;position:relative}.rv-legend-titles__left,.rv-legend-titles__right,.rv-legend-titles__center{position:absolute;white-space:nowrap;overflow:hidden}.rv-legend-titles__center{display:block;text-align:center;width:100%}.rv-legend-titles__right{right:0}.rv-radial-chart .rv-xy-plot__series--label{pointer-events:none}<br /><br />/*]]&gt;*/</style></svg>